# This file uses centimeters as units for non-parametric coordinates.

mtllib gun.mtl
g default
v -0.096831 1.282698 1.662125
v -0.101115 1.250544 1.665676
v -0.095196 1.218677 1.669461
v -0.079653 1.190216 1.673110
v -0.056009 1.167948 1.676265
v -0.026577 1.154052 1.678618
v 0.005762 1.149889 1.679939
v 0.037841 1.155866 1.680098
v 0.066522 1.171397 1.679079
v 0.088996 1.194964 1.676983
v 0.103063 1.224258 1.674014
v 0.107347 1.256412 1.670464
v 0.101428 1.288279 1.666679
v 0.085886 1.316739 1.663030
v 0.062242 1.339007 1.659875
v 0.032810 1.352903 1.657521
v 0.000471 1.357066 1.656200
v -0.031609 1.351090 1.656042
v -0.060289 1.335558 1.657060
v -0.082763 1.311992 1.659156
v -0.049701 1.115198 0.135246
v -0.053985 1.083044 0.138797
v -0.048066 1.051177 0.142582
v -0.032524 1.022716 0.146230
v -0.008880 1.000448 0.149386
v 0.020552 0.986553 0.151739
v 0.052891 0.982389 0.153060
v 0.084971 0.988366 0.153219
v 0.113651 1.003898 0.152200
v 0.136125 1.027464 0.150104
v 0.150193 1.056758 0.147135
v 0.154476 1.088912 0.143584
v 0.148558 1.120779 0.139799
v 0.133015 1.149239 0.136150
v 0.109371 1.171507 0.132995
v 0.079939 1.185403 0.130642
v 0.047600 1.189567 0.129321
v 0.015521 1.183590 0.129162
v -0.013160 1.168058 0.130181
v -0.035634 1.144492 0.132277
v 0.003116 1.253478 1.668070
v 0.050246 1.085978 0.141190
v 0.280645 1.021074 0.058303
v 0.281796 1.096500 0.047165
v 0.259327 1.168609 0.036569
v 0.215437 1.230345 0.027552
v 0.154422 1.275663 0.020996
v 0.082255 1.300129 0.017543
v 0.006000 1.301346 0.017532
v -0.066879 1.279196 0.020963
v -0.129247 1.235847 0.027500
v -0.175000 1.175542 0.036504
v -0.199659 1.104185 0.047093
v -0.200810 1.028760 0.058231
v -0.178341 0.956650 0.068827
v -0.134451 0.894915 0.077845
v -0.073436 0.849596 0.084401
v -0.001269 0.825131 0.087853
v 0.074986 0.823914 0.087865
v 0.147865 0.846064 0.084434
v 0.210233 0.889413 0.077896
v 0.255986 0.949717 0.068892
v 0.047555 1.109031 0.312363
v 0.177115 1.214231 1.762895
v 0.154037 1.161985 1.767122
v 0.115889 1.119365 1.770152
v 0.066405 1.090545 1.771690
v 0.010429 1.078345 1.771585
v -0.046560 1.083959 1.769847
v -0.098983 1.106838 1.766646
v -0.141708 1.144743 1.762296
v -0.170555 1.193962 1.757223
v -0.182698 1.249679 1.751922
v -0.176949 1.306438 1.746913
v -0.153871 1.358685 1.742687
v -0.115722 1.401304 1.739656
v -0.066238 1.430124 1.738119
v -0.010262 1.442325 1.738224
v 0.046726 1.436710 1.739962
v 0.099149 1.413831 1.743162
v 0.141875 1.375927 1.747512
v 0.170721 1.326707 1.752586
v 0.182864 1.270991 1.757887
v 0.005591 1.244470 1.498881
vt 0.648603 0.107966
vt 0.626409 0.064408
vt 0.591842 0.029841
vt 0.548284 0.007647
vt 0.500000 -0.000000
vt 0.451716 0.007647
vt 0.408159 0.029841
vt 0.373591 0.064409
vt 0.351397 0.107966
vt 0.343750 0.156250
vt 0.351397 0.204534
vt 0.373591 0.248091
vt 0.408159 0.282659
vt 0.451716 0.304853
vt 0.500000 0.312500
vt 0.548284 0.304853
vt 0.591841 0.282659
vt 0.626409 0.248091
vt 0.648603 0.204534
vt 0.656250 0.156250
vt 0.375000 0.312500
vt 0.387500 0.312500
vt 0.400000 0.312500
vt 0.412500 0.312500
vt 0.425000 0.312500
vt 0.437500 0.312500
vt 0.450000 0.312500
vt 0.462500 0.312500
vt 0.475000 0.312500
vt 0.487500 0.312500
vt 0.500000 0.312500
vt 0.512500 0.312500
vt 0.525000 0.312500
vt 0.537500 0.312500
vt 0.550000 0.312500
vt 0.562500 0.312500
vt 0.575000 0.312500
vt 0.587500 0.312500
vt 0.600000 0.312500
vt 0.612500 0.312500
vt 0.625000 0.312500
vt 0.375000 0.687500
vt 0.387500 0.687500
vt 0.400000 0.687500
vt 0.412500 0.687500
vt 0.425000 0.687500
vt 0.437500 0.687500
vt 0.450000 0.687500
vt 0.462500 0.687500
vt 0.475000 0.687500
vt 0.487500 0.687500
vt 0.500000 0.687500
vt 0.512500 0.687500
vt 0.525000 0.687500
vt 0.537500 0.687500
vt 0.550000 0.687500
vt 0.562500 0.687500
vt 0.575000 0.687500
vt 0.587500 0.687500
vt 0.600000 0.687500
vt 0.612500 0.687500
vt 0.625000 0.687500
vt 0.648603 0.795466
vt 0.626409 0.751908
vt 0.591842 0.717341
vt 0.548284 0.695147
vt 0.500000 0.687500
vt 0.451716 0.695147
vt 0.408159 0.717341
vt 0.373591 0.751909
vt 0.351397 0.795466
vt 0.343750 0.843750
vt 0.351397 0.892034
vt 0.373591 0.935591
vt 0.408159 0.970159
vt 0.451716 0.992353
vt 0.500000 1.000000
vt 0.548284 0.992353
vt 0.591841 0.970159
vt 0.626409 0.935591
vt 0.648603 0.892034
vt 0.656250 0.843750
vt 0.500000 0.156250
vt 0.500000 0.843750
vt 0.737764 0.172746
vt 0.750000 0.250000
vt 0.737764 0.327254
vt 0.702254 0.396946
vt 0.646946 0.452254
vt 0.577254 0.487764
vt 0.500000 0.500000
vt 0.422746 0.487764
vt 0.353054 0.452254
vt 0.297746 0.396946
vt 0.262236 0.327254
vt 0.250000 0.250000
vt 0.262236 0.172746
vt 0.297746 0.103054
vt 0.353054 0.047746
vt 0.422746 0.012236
vt 0.500000 -0.000000
vt 0.577254 0.012236
vt 0.646946 0.047746
vt 0.702254 0.103054
vt 0.250000 0.500000
vt 0.275000 0.500000
vt 0.500000 1.000000
vt 0.300000 0.500000
vt 0.325000 0.500000
vt 0.350000 0.500000
vt 0.375000 0.500000
vt 0.400000 0.500000
vt 0.425000 0.500000
vt 0.450000 0.500000
vt 0.475000 0.500000
vt 0.500000 0.500000
vt 0.525000 0.500000
vt 0.550000 0.500000
vt 0.575000 0.500000
vt 0.600000 0.500000
vt 0.625000 0.500000
vt 0.650000 0.500000
vt 0.675000 0.500000
vt 0.700000 0.500000
vt 0.725000 0.500000
vt 0.750000 0.500000
vt 0.737764 0.172746
vt 0.750000 0.250000
vt 0.737764 0.327254
vt 0.702254 0.396946
vt 0.646946 0.452254
vt 0.577254 0.487764
vt 0.500000 0.500000
vt 0.422746 0.487764
vt 0.353054 0.452254
vt 0.297746 0.396946
vt 0.262236 0.327254
vt 0.250000 0.250000
vt 0.262236 0.172746
vt 0.297746 0.103054
vt 0.353054 0.047746
vt 0.422746 0.012236
vt 0.500000 -0.000000
vt 0.577254 0.012236
vt 0.646946 0.047746
vt 0.702254 0.103054
vt 0.250000 0.500000
vt 0.275000 0.500000
vt 0.500000 1.000000
vt 0.300000 0.500000
vt 0.325000 0.500000
vt 0.350000 0.500000
vt 0.375000 0.500000
vt 0.400000 0.500000
vt 0.425000 0.500000
vt 0.450000 0.500000
vt 0.475000 0.500000
vt 0.500000 0.500000
vt 0.525000 0.500000
vt 0.550000 0.500000
vt 0.575000 0.500000
vt 0.600000 0.500000
vt 0.625000 0.500000
vt 0.650000 0.500000
vt 0.675000 0.500000
vt 0.700000 0.500000
vt 0.725000 0.500000
vt 0.750000 0.500000
vn -0.958175 0.279766 -0.060266
vn -0.958175 0.279766 -0.060266
vn -0.999205 -0.028689 -0.027695
vn -0.999205 -0.028690 -0.027695
vn -0.942426 -0.334328 0.007587
vn -0.942426 -0.334328 0.007587
vn -0.793403 -0.607238 0.042125
vn -0.793403 -0.607237 0.042125
vn -0.566721 -0.820710 0.072540
vn -0.566722 -0.820710 0.072540
vn -0.284567 -0.953852 0.095855
vn -0.284567 -0.953852 0.095855
vn 0.025449 -0.993629 0.109787
vn 0.025449 -0.993629 0.109787
vn 0.332980 -0.936142 0.112973
vn 0.332980 -0.936142 0.112973
vn 0.607919 -0.787012 0.105100
vn 0.607919 -0.787012 0.105100
vn 0.823348 -0.560838 0.086938
vn 0.823348 -0.560838 0.086938
vn 0.958175 -0.279764 0.060266
vn 0.958175 -0.279764 0.060266
vn 0.999205 0.028691 0.027695
vn 0.999205 0.028690 0.027695
vn 0.942426 0.334329 -0.007587
vn 0.942426 0.334328 -0.007587
vn 0.793404 0.607237 -0.042125
vn 0.793403 0.607238 -0.042125
vn 0.566722 0.820709 -0.072540
vn 0.566721 0.820710 -0.072540
vn 0.284567 0.953852 -0.095855
vn 0.284567 0.953852 -0.095855
vn -0.025449 0.993629 -0.109787
vn -0.025449 0.993629 -0.109787
vn -0.332980 0.936142 -0.112973
vn -0.332980 0.936142 -0.112973
vn -0.607919 0.787012 -0.105100
vn -0.607919 0.787012 -0.105100
vn -0.823348 0.560839 -0.086938
vn -0.823347 0.560839 -0.086938
vn -0.025996 0.113143 0.993239
vn -0.025996 0.113142 0.993239
vn -0.025996 0.113143 0.993239
vn -0.025994 0.113143 0.993239
vn -0.025994 0.113141 0.993239
vn -0.025994 0.113141 0.993239
vn -0.025999 0.113142 0.993239
vn -0.025998 0.113141 0.993239
vn -0.025993 0.113141 0.993239
vn -0.025996 0.113142 0.993239
vn -0.025998 0.113141 0.993239
vn -0.025998 0.113141 0.993239
vn -0.025997 0.113145 0.993238
vn -0.025996 0.113147 0.993238
vn -0.025993 0.113142 0.993239
vn -0.025996 0.113140 0.993239
vn -0.025999 0.113143 0.993238
vn -0.025997 0.113144 0.993238
vn -0.025993 0.113143 0.993239
vn -0.025996 0.113142 0.993239
vn -0.025998 0.113142 0.993239
vn 0.025997 -0.113142 -0.993239
vn 0.025997 -0.113142 -0.993239
vn 0.025997 -0.113142 -0.993239
vn 0.025997 -0.113143 -0.993239
vn 0.025997 -0.113142 -0.993239
vn 0.025997 -0.113142 -0.993239
vn 0.025997 -0.113142 -0.993239
vn 0.025996 -0.113142 -0.993239
vn 0.025997 -0.113142 -0.993239
vn 0.025997 -0.113142 -0.993239
vn 0.025998 -0.113142 -0.993239
vn 0.025997 -0.113142 -0.993239
vn 0.025997 -0.113146 -0.993238
vn 0.025997 -0.113147 -0.993238
vn 0.025993 -0.113141 -0.993239
vn 0.025994 -0.113140 -0.993239
vn 0.025998 -0.113142 -0.993239
vn 0.025996 -0.113142 -0.993239
vn 0.025997 -0.113142 -0.993239
vn 0.025997 -0.113142 -0.993239
vn 0.025998 -0.113142 -0.993239
vn -0.002184 -0.146050 -0.989275
vn -0.002184 -0.146050 -0.989275
vn -0.002184 -0.146050 -0.989275
vn -0.002184 -0.146050 -0.989275
vn -0.002184 -0.146050 -0.989275
vn -0.002184 -0.146050 -0.989275
vn -0.002184 -0.146050 -0.989275
vn -0.002184 -0.146050 -0.989275
vn -0.002184 -0.146050 -0.989275
vn -0.002184 -0.146050 -0.989275
vn -0.002184 -0.146050 -0.989275
vn -0.002184 -0.146050 -0.989275
vn -0.002184 -0.146050 -0.989275
vn -0.002184 -0.146050 -0.989275
vn -0.002184 -0.146050 -0.989275
vn -0.002184 -0.146050 -0.989275
vn -0.002184 -0.146050 -0.989275
vn -0.002184 -0.146050 -0.989275
vn -0.002184 -0.146050 -0.989275
vn -0.002184 -0.146050 -0.989275
vn 0.731751 -0.027869 0.681002
vn 0.738830 0.201490 0.643065
vn 0.002183 0.146050 0.989275
vn 0.672510 0.422470 0.607659
vn 0.538950 0.612283 0.578483
vn 0.351639 0.751216 0.558592
vn 0.129915 0.824979 0.550029
vn -0.103296 0.826362 0.553585
vn -0.324176 0.755940 0.568740
vn -0.510721 0.621763 0.593780
vn -0.645056 0.438137 0.626050
vn -0.715050 0.223769 0.662292
vn -0.715118 -0.000357 0.699004
vn -0.646275 -0.213039 0.732764
vn -0.515638 -0.394657 0.760502
vn -0.335577 -0.528621 0.779710
vn -0.122666 -0.602539 0.788606
vn 0.103530 -0.609143 0.786274
vn 0.321874 -0.547021 0.772765
vn 0.511339 -0.421052 0.749165
vn 0.652934 -0.242400 0.717578
vn -0.021496 0.090042 0.995706
vn -0.021496 0.090042 0.995706
vn -0.021496 0.090042 0.995706
vn -0.021496 0.090042 0.995706
vn -0.021496 0.090042 0.995706
vn -0.021496 0.090042 0.995706
vn -0.021496 0.090042 0.995706
vn -0.021496 0.090042 0.995706
vn -0.021496 0.090042 0.995706
vn -0.021496 0.090042 0.995706
vn -0.021496 0.090042 0.995706
vn -0.021496 0.090042 0.995706
vn -0.021496 0.090042 0.995706
vn -0.021496 0.090042 0.995706
vn -0.021496 0.090042 0.995706
vn -0.021496 0.090042 0.995706
vn -0.021496 0.090042 0.995706
vn -0.021496 0.090042 0.995706
vn -0.021496 0.090042 0.995706
vn -0.021496 0.090042 0.995706
vn 0.796681 -0.257028 -0.547025
vn 0.691895 -0.487300 -0.532747
vn 0.021496 -0.090043 -0.995706
vn 0.522019 -0.673781 -0.522987
vn 0.303812 -0.799189 -0.518648
vn 0.058163 -0.852110 -0.520120
vn -0.191775 -0.827780 -0.527259
vn -0.422507 -0.728382 -0.539396
vn -0.612100 -0.562912 -0.555396
vn -0.742089 -0.346590 -0.573741
vn -0.799245 -0.099758 -0.592668
vn -0.777083 0.153795 -0.610319
vn -0.676843 0.389027 -0.624934
vn -0.507723 0.582193 -0.635035
vn -0.286200 0.713455 -0.639587
vn -0.034432 0.769168 -0.638118
vn 0.222097 0.743504 -0.630773
vn 0.457374 0.639153 -0.618298
vn 0.647733 0.466999 -0.601958
vn 0.774409 0.244816 -0.583400
vn 0.825440 -0.004813 -0.564469
s 1
g pCylinder3
usemtl initialShadingGroup
f 1/21/1 21/42/2 22/43/3 2/22/4
f 2/22/4 22/43/3 23/44/5 3/23/6
f 3/23/6 23/44/5 24/45/7 4/24/8
f 4/24/8 24/45/7 25/46/9 5/25/10
f 5/25/10 25/46/9 26/47/11 6/26/12
f 6/26/12 26/47/11 27/48/13 7/27/14
f 7/27/14 27/48/13 28/49/15 8/28/16
f 8/28/16 28/49/15 29/50/17 9/29/18
f 9/29/18 29/50/17 30/51/19 10/30/20
f 10/30/20 30/51/19 31/52/21 11/31/22
f 11/31/22 31/52/21 32/53/23 12/32/24
f 12/32/24 32/53/23 33/54/25 13/33/26
f 13/33/26 33/54/25 34/55/27 14/34/28
f 14/34/28 34/55/27 35/56/29 15/35/30
f 15/35/30 35/56/29 36/57/31 16/36/32
f 16/36/32 36/57/31 37/58/33 17/37/34
f 17/37/34 37/58/33 38/59/35 18/38/36
f 18/38/36 38/59/35 39/60/37 19/39/38
f 19/39/38 39/60/37 40/61/39 20/40/40
f 20/40/40 40/61/39 21/62/2 1/41/1
s 2
f 2/2/41 41/83/42 1/1/43
f 3/3/44 41/83/42 2/2/41
f 4/4/45 41/83/42 3/3/44
f 5/5/46 41/83/42 4/4/45
f 6/6/47 41/83/42 5/5/46
f 7/7/48 41/83/42 6/6/47
f 8/8/49 41/83/42 7/7/48
f 9/9/50 41/83/42 8/8/49
f 10/10/51 41/83/42 9/9/50
f 11/11/52 41/83/42 10/10/51
f 12/12/53 41/83/42 11/11/52
f 13/13/54 41/83/42 12/12/53
f 14/14/55 41/83/42 13/13/54
f 15/15/56 41/83/42 14/14/55
f 16/16/57 41/83/42 15/15/56
f 17/17/58 41/83/42 16/16/57
f 18/18/59 41/83/42 17/17/58
f 19/19/60 41/83/42 18/18/59
f 20/20/61 41/83/42 19/19/60
f 1/1/43 41/83/42 20/20/61
s 3
f 21/81/62 42/84/63 22/80/64
f 22/80/64 42/84/63 23/79/65
f 23/79/65 42/84/63 24/78/66
f 24/78/66 42/84/63 25/77/67
f 25/77/67 42/84/63 26/76/68
f 26/76/68 42/84/63 27/75/69
f 27/75/69 42/84/63 28/74/70
f 28/74/70 42/84/63 29/73/71
f 29/73/71 42/84/63 30/72/72
f 30/72/72 42/84/63 31/71/73
f 31/71/73 42/84/63 32/70/74
f 32/70/74 42/84/63 33/69/75
f 33/69/75 42/84/63 34/68/76
f 34/68/76 42/84/63 35/67/77
f 35/67/77 42/84/63 36/66/78
f 36/66/78 42/84/63 37/65/79
f 37/65/79 42/84/63 38/64/80
f 38/64/80 42/84/63 39/63/81
f 39/63/81 42/84/63 40/82/82
f 40/82/82 42/84/63 21/81/62
s off
f 43/85/83 62/86/84 61/87/85 60/88/86 59/89/87 58/90/88 57/91/89 56/92/90 55/93/91 54/94/92 53/95/93 52/96/94 51/97/95 50/98/96 49/99/97 48/100/98 47/101/99 46/102/100 45/103/101 44/104/102
s 4
f 43/105/103 44/106/104 63/107/105
f 44/106/104 45/108/106 63/107/105
f 45/108/106 46/109/107 63/107/105
f 46/109/107 47/110/108 63/107/105
f 47/110/108 48/111/109 63/107/105
f 48/111/109 49/112/110 63/107/105
f 49/112/110 50/113/111 63/107/105
f 50/113/111 51/114/112 63/107/105
f 51/114/112 52/115/113 63/107/105
f 52/115/113 53/116/114 63/107/105
f 53/116/114 54/117/115 63/107/105
f 54/117/115 55/118/116 63/107/105
f 55/118/116 56/119/117 63/107/105
f 56/119/117 57/120/118 63/107/105
f 57/120/118 58/121/119 63/107/105
f 58/121/119 59/122/120 63/107/105
f 59/122/120 60/123/121 63/107/105
f 60/123/121 61/124/122 63/107/105
f 61/124/122 62/125/123 63/107/105
f 62/125/123 43/126/103 63/107/105
s off
f 64/127/124 83/128/125 82/129/126 81/130/127 80/131/128 79/132/129 78/133/130 77/134/131 76/135/132 75/136/133 74/137/134 73/138/135 72/139/136 71/140/137 70/141/138 69/142/139 68/143/140 67/144/141 66/145/142 65/146/143
s 5
f 64/147/144 65/148/145 84/149/146
f 65/148/145 66/150/147 84/149/146
f 66/150/147 67/151/148 84/149/146
f 67/151/148 68/152/149 84/149/146
f 68/152/149 69/153/150 84/149/146
f 69/153/150 70/154/151 84/149/146
f 70/154/151 71/155/152 84/149/146
f 71/155/152 72/156/153 84/149/146
f 72/156/153 73/157/154 84/149/146
f 73/157/154 74/158/155 84/149/146
f 74/158/155 75/159/156 84/149/146
f 75/159/156 76/160/157 84/149/146
f 76/160/157 77/161/158 84/149/146
f 77/161/158 78/162/159 84/149/146
f 78/162/159 79/163/160 84/149/146
f 79/163/160 80/164/161 84/149/146
f 80/164/161 81/165/162 84/149/146
f 81/165/162 82/166/163 84/149/146
f 82/166/163 83/167/164 84/149/146
f 83/167/164 64/168/144 84/149/146
