# This file uses centimeters as units for non-parametric coordinates.

mtllib turret.mtl
g default
v -0.138361 1.310169 -0.520623
v -0.219119 0.930695 -0.631777
v -0.319010 0.930695 -0.531886
v -0.207856 1.310169 -0.451128
v -0.050792 1.310169 -0.565241
v -0.093249 0.930695 -0.695911
v -0.383144 0.930695 -0.406017
v -0.252474 1.310169 -0.363559
v 0.046278 1.310169 -0.580616
v 0.046278 0.930695 -0.718010
v -0.405242 0.930695 -0.266489
v -0.267848 1.310169 -0.266489
v 0.143349 1.310169 -0.565241
v 0.185806 0.930695 -0.695911
v -0.383144 0.930695 -0.126961
v -0.252474 1.310169 -0.169418
v 0.230917 1.310169 -0.520623
v 0.311676 0.930695 -0.631777
v -0.319010 0.930695 -0.001092
v -0.207856 1.310169 -0.081850
v -0.219119 0.930695 0.098799
v -0.138361 1.310169 -0.012355
v 0.300412 1.310169 -0.451128
v 0.411566 0.930695 -0.531886
v -0.093249 0.930695 0.162933
v -0.050792 1.310169 0.032263
v 0.345031 1.310169 -0.363560
v 0.475700 0.930695 -0.406017
v 0.046278 0.930695 0.185032
v 0.046278 1.310169 0.047638
v 0.360405 1.310169 -0.266489
v 0.497799 0.930695 -0.266489
v 0.345031 1.310169 -0.169418
v 0.475700 0.930695 -0.126961
v 0.185806 0.930695 0.162933
v 0.143349 1.310169 0.032263
v 0.300412 1.310169 -0.081850
v 0.411566 0.930695 -0.001092
v 0.311676 0.930695 0.098799
v 0.230917 1.310169 -0.012355
vt 0.430429 0.652146
vt 0.400000 0.500000
vt 0.425000 0.500000
vt 0.447822 0.652146
vt 0.413036 0.652146
vt 0.375000 0.500000
vt 0.450000 0.500000
vt 0.465215 0.652146
vt 0.395644 0.652146
vt 0.350000 0.500000
vt 0.475000 0.500000
vt 0.482607 0.652146
vt 0.378251 0.652146
vt 0.325000 0.500000
vt 0.500000 0.500000
vt 0.500000 0.652146
vt 0.360858 0.652146
vt 0.300000 0.500000
vt 0.525000 0.500000
vt 0.517393 0.652146
vt 0.550000 0.500000
vt 0.534785 0.652146
vt 0.343466 0.652146
vt 0.275000 0.500000
vt 0.575000 0.500000
vt 0.552178 0.652146
vt 0.326073 0.652146
vt 0.250000 0.500000
vt 0.600000 0.500000
vt 0.569571 0.652146
vt 0.656534 0.652146
vt 0.725000 0.500000
vt 0.750000 0.500000
vt 0.673927 0.652146
vt 0.639142 0.652146
vt 0.700000 0.500000
vt 0.625000 0.500000
vt 0.586964 0.652146
vt 0.621749 0.652146
vt 0.675000 0.500000
vt 0.650000 0.500000
vt 0.604356 0.652146
vt 0.737764 0.172746
vt 0.750000 0.250000
vt 0.737764 0.327254
vt 0.702254 0.396946
vt 0.646946 0.452254
vt 0.577254 0.487764
vt 0.500000 0.500000
vt 0.422746 0.487764
vt 0.353054 0.452254
vt 0.297746 0.396946
vt 0.262236 0.327254
vt 0.250000 0.250000
vt 0.262236 0.172746
vt 0.297746 0.103054
vt 0.353054 0.047746
vt 0.422746 0.012236
vt 0.500000 -0.000000
vt 0.577254 0.012236
vt 0.646946 0.047746
vt 0.702254 0.103054
vt 0.461685 0.192886
vt 0.451863 0.212163
vt 0.448479 0.233532
vt 0.451863 0.254900
vt 0.461685 0.274177
vt 0.476983 0.289475
vt 0.496260 0.299297
vt 0.517628 0.302681
vt 0.538996 0.299297
vt 0.558273 0.289475
vt 0.573571 0.274177
vt 0.583393 0.254900
vt 0.586778 0.233532
vt 0.583393 0.212163
vt 0.573571 0.192886
vt 0.558273 0.177588
vt 0.538996 0.167766
vt 0.517628 0.164382
vt 0.496260 0.167766
vt 0.476983 0.177588
vn -0.552675 0.340437 -0.760692
vn -0.552675 0.340437 -0.760692
vn -0.760692 0.340437 -0.552675
vn -0.760692 0.340437 -0.552675
vn -0.290559 0.340437 -0.894247
vn -0.290559 0.340437 -0.894247
vn -0.894247 0.340437 -0.290558
vn -0.894247 0.340437 -0.290558
vn 0.000000 0.340437 -0.940267
vn 0.000000 0.340437 -0.940267
vn -0.940267 0.340437 0.000000
vn -0.940267 0.340437 0.000000
vn 0.290558 0.340437 -0.894247
vn 0.290558 0.340437 -0.894247
vn -0.894247 0.340437 0.290559
vn -0.894247 0.340437 0.290559
vn 0.552675 0.340437 -0.760692
vn 0.552675 0.340437 -0.760692
vn -0.760692 0.340437 0.552675
vn -0.760692 0.340437 0.552675
vn -0.552675 0.340437 0.760692
vn -0.552675 0.340437 0.760692
vn 0.760692 0.340437 -0.552675
vn 0.760692 0.340437 -0.552675
vn -0.290559 0.340437 0.894247
vn -0.290559 0.340437 0.894247
vn 0.894248 0.340437 -0.290558
vn 0.894248 0.340437 -0.290558
vn 0.000000 0.340437 0.940267
vn 0.000000 0.340437 0.940267
vn 0.940267 0.340437 0.000001
vn 0.940267 0.340437 0.000001
vn 0.894247 0.340437 0.290559
vn 0.894247 0.340437 0.290559
vn 0.290559 0.340437 0.894247
vn 0.290559 0.340437 0.894247
vn 0.760692 0.340437 0.552676
vn 0.760692 0.340437 0.552675
vn 0.552675 0.340437 0.760692
vn 0.552675 0.340437 0.760692
vn 0.000000 -1.000000 0.000000
vn 0.000000 -1.000000 0.000000
vn 0.000000 -1.000000 0.000000
vn 0.000000 -1.000000 0.000000
vn 0.000000 -1.000000 0.000000
vn 0.000000 -1.000000 0.000000
vn 0.000000 -1.000000 0.000000
vn 0.000000 -1.000000 0.000000
vn 0.000000 -1.000000 0.000000
vn 0.000000 -1.000000 0.000000
vn 0.000000 -1.000000 0.000000
vn 0.000000 -1.000000 0.000000
vn 0.000000 -1.000000 0.000000
vn 0.000000 -1.000000 0.000000
vn 0.000000 -1.000000 0.000000
vn 0.000000 -1.000000 0.000000
vn 0.000000 -1.000000 0.000000
vn 0.000000 -1.000000 0.000000
vn 0.000000 -1.000000 0.000000
vn 0.000000 -1.000000 0.000000
vn 0.000000 1.000000 -0.000000
vn 0.000000 1.000000 -0.000000
vn 0.000000 1.000000 -0.000000
vn 0.000000 1.000000 -0.000000
vn 0.000000 1.000000 -0.000000
vn 0.000000 1.000000 -0.000000
vn 0.000000 1.000000 -0.000000
vn 0.000000 1.000000 -0.000000
vn 0.000000 1.000000 -0.000000
vn 0.000000 1.000000 -0.000000
vn 0.000000 1.000000 -0.000000
vn 0.000000 1.000000 -0.000000
vn 0.000000 1.000000 -0.000000
vn 0.000000 1.000000 -0.000000
vn 0.000000 1.000000 -0.000000
vn 0.000000 1.000000 -0.000000
vn 0.000000 1.000000 -0.000000
vn 0.000000 1.000000 -0.000000
vn 0.000000 1.000000 -0.000000
vn 0.000000 1.000000 -0.000000
s 1
g polySurface14
usemtl initialShadingGroup
f 1/1/1 2/2/2 3/3/3 4/4/4
f 5/5/5 6/6/6 2/2/2 1/1/1
f 4/4/4 3/3/3 7/7/7 8/8/8
f 9/9/9 10/10/10 6/6/6 5/5/5
f 8/8/8 7/7/7 11/11/11 12/12/12
f 13/13/13 14/14/14 10/10/10 9/9/9
f 12/12/12 11/11/11 15/15/15 16/16/16
f 17/17/17 18/18/18 14/14/14 13/13/13
f 16/16/16 15/15/15 19/19/19 20/20/20
f 20/20/20 19/19/19 21/21/21 22/22/22
f 23/23/23 24/24/24 18/18/18 17/17/17
f 22/22/22 21/21/21 25/25/25 26/26/26
f 27/27/27 28/28/28 24/24/24 23/23/23
f 26/26/26 25/25/25 29/29/29 30/30/30
f 31/31/31 32/32/32 28/33/28 27/34/27
f 33/35/33 34/36/34 32/32/32 31/31/31
f 30/30/30 29/29/29 35/37/35 36/38/36
f 37/39/37 38/40/38 34/36/34 33/35/33
f 36/38/36 35/37/35 39/41/39 40/42/40
f 40/42/40 39/41/39 38/40/38 37/39/37
s off
f 28/43/41 32/44/42 34/45/43 38/46/44 39/47/45 35/48/46 29/49/47 25/50/48 21/51/49 19/52/50 15/53/51 11/54/52 7/55/53 3/56/54 2/57/55 6/58/56 10/59/57 14/60/58 18/61/59 24/62/60
f 4/63/61 8/64/62 12/65/63 16/66/64 20/67/65 22/68/66 26/69/67 30/70/68 36/71/69 40/72/70 37/73/71 33/74/72 31/75/73 27/76/74 23/77/75 17/78/76 13/79/77 9/80/78 5/81/79 1/82/80
